<svg version="1.0" xmlns="http://www.w3.org/2000/svg"
 width="512" height="512"  viewBox="0 0 1401.000000 1390.000000"
 preserveAspectRatio="xMidYMid meet">

<g transform="translate(0.000000,1390.000000) scale(0.100000,-0.100000)"
fill="#000000" stroke="none">
<path d="M6680 13444 c-25 -2 -115 -8 -200 -14 -287 -21 -654 -75 -941 -140
-1909 -433 -3533 -1716 -4399 -3475 -370 -751 -578 -1511 -652 -2375 -17 -203
-17 -797 0 -1000 74 -864 282 -1624 652 -2375 915 -1858 2676 -3182 4704
-3535 411 -72 691 -95 1136 -95 445 0 725 23 1138 95 1516 264 2912 1083 3897
2285 708 863 1186 1902 1375 2987 72 413 95 693 95 1138 0 445 -23 725 -95
1136 -353 2028 -1677 3789 -3535 4704 -732 360 -1477 569 -2305 645 -153 15
-766 28 -870 19z m682 -554 c1058 -72 2090 -424 2948 -1007 255 -174 666 -500
663 -526 -1 -5 -250 -263 -553 -573 -481 -492 -554 -563 -568 -552 -9 7 -60
49 -113 93 -467 388 -1090 704 -1677 850 -361 89 -619 125 -970 132 -759 16
-1421 -131 -2087 -465 -300 -150 -630 -371 -889 -596 -55 -47 -103 -86 -106
-86 -4 0 -33 9 -65 20 -139 48 -343 45 -494 -6 -195 -67 -360 -212 -450 -397
-59 -123 -82 -218 -82 -346 0 -174 42 -316 133 -449 l30 -44 -55 -116 c-225
-478 -359 -969 -408 -1497 -16 -166 -16 -593 0 -755 55 -570 192 -1056 436
-1555 212 -432 473 -794 824 -1145 202 -201 411 -378 606 -512 479 -330 1019
-560 1600 -684 l130 -27 37 -76 c44 -90 127 -194 206 -257 75 -60 239 -138
329 -158 146 -32 346 -14 477 44 183 82 313 206 404 387 l31 61 73 12 c134 22
426 100 605 161 848 290 1559 807 2095 1524 641 857 950 1954 847 3010 -85
883 -433 1721 -992 2390 -37 44 -66 82 -65 85 8 16 1122 1105 1131 1105 17 0
204 -221 339 -400 814 -1079 1238 -2392 1205 -3730 -46 -1809 -880 -3462
-2311 -4578 -324 -253 -731 -502 -1100 -674 -510 -238 -1007 -396 -1516 -482
-358 -61 -560 -80 -930 -87 -732 -16 -1444 103 -2150 360 -599 218 -1184 548
-1679 946 -1105 889 -1857 2136 -2125 3525 -110 572 -135 1200 -70 1785 155
1408 815 2724 1852 3693 885 828 2011 1371 3195 1542 167 24 431 52 552 58
151 8 568 6 707 -3z m19 -2155 c299 -33 579 -97 849 -192 428 -152 849 -391
1177 -669 l62 -52 -290 -299 c-160 -164 -340 -347 -399 -407 l-108 -109 -94
70 c-639 481 -1463 652 -2234 463 -489 -119 -931 -372 -1281 -733 -625 -645
-882 -1555 -688 -2432 64 -291 217 -651 377 -890 350 -522 869 -907 1465
-1084 222 -66 423 -97 693 -107 479 -19 1002 117 1416 366 l85 52 87 -39 c138
-64 199 -77 342 -77 151 0 239 21 375 92 69 36 110 67 176 132 173 171 249
367 236 609 -8 154 -62 307 -149 422 -19 24 -37 49 -41 56 -4 6 7 49 24 95
175 471 217 965 124 1461 -72 380 -249 778 -487 1091 l-60 79 358 351 c198
193 382 373 410 399 l52 48 70 -88 c462 -582 730 -1226 824 -1983 17 -140 17
-679 0 -820 -110 -892 -475 -1653 -1090 -2273 -489 -493 -1085 -834 -1760
-1008 -158 -40 -202 -47 -202 -28 0 22 -72 153 -115 209 -281 366 -820 413
-1157 101 -82 -75 -147 -164 -188 -255 -18 -39 -36 -66 -45 -66 -30 0 -266 61
-382 99 -980 319 -1767 989 -2235 1901 -457 890 -539 1925 -231 2895 41 129
118 328 171 438 l37 79 160 2 c146 2 167 5 240 30 93 33 142 57 205 99 149
100 259 248 316 422 21 63 27 107 31 206 6 140 -7 225 -53 334 l-24 60 32 28
c253 219 500 385 799 537 484 245 954 368 1544 404 115 7 441 -4 576 -19z
m-3509 -987 c60 -28 138 -99 164 -150 27 -52 44 -121 44 -178 0 -57 -17 -126
-44 -178 -26 -51 -104 -122 -164 -150 -50 -24 -69 -27 -157 -27 -87 0 -107 3
-155 26 -73 34 -136 99 -174 179 -27 57 -31 76 -31 150 0 75 4 93 32 150 46
96 113 159 206 192 78 27 204 21 279 -14z m3423 -683 c314 -48 617 -166 875
-341 149 -101 138 -87 100 -131 -18 -21 -284 -291 -591 -600 l-559 -561 -33 8
c-115 30 -221 19 -332 -35 -184 -89 -285 -252 -285 -459 1 -201 103 -362 290
-454 l75 -37 135 0 135 0 80 39 c200 98 317 312 285 520 -8 55 -8 72 2 81 33
30 1146 1116 1167 1139 14 14 27 26 31 26 10 0 132 -184 182 -275 290 -529
346 -1169 151 -1725 l-26 -75 -128 3 c-105 3 -143 0 -214 -18 -240 -60 -418
-202 -526 -420 -52 -105 -70 -182 -76 -320 -4 -111 -2 -136 20 -220 14 -52 25
-95 24 -96 -19 -16 -199 -104 -278 -137 -271 -114 -508 -160 -819 -160 -355 0
-649 68 -955 220 -198 99 -367 218 -528 372 -333 320 -545 720 -629 1188 -33
185 -33 521 0 706 40 224 110 431 208 623 287 560 821 975 1428 1108 96 21
168 32 326 50 74 9 360 -3 465 -19z m1638 -3324 c262 -86 333 -429 127 -614
-113 -102 -273 -121 -413 -50 -170 85 -241 307 -155 480 82 164 268 242 441
184z m-1847 -2472 c202 -76 294 -313 196 -508 -34 -68 -119 -145 -192 -172
-77 -30 -185 -29 -265 1 -83 32 -175 123 -205 205 -27 74 -30 169 -7 247 56
189 283 298 473 227z"/>
</g>
</svg>
